<?xml version="1.0"?>
<svg width="5909" height="2853" xmlns="http://www.w3.org/2000/svg" xmlns:svg="http://www.w3.org/2000/svg" version="1.1" xml:space="preserve">
 <desc>Created with Fabric.js 5.2.4</desc>

 <g class="layer">
  <title>Layer 1</title>
  <g id="svg_3" transform="translate(-21.4286, -14.2857) matrix(3.69, 0, 0, 3.69, 4226.12, 1755.96)">
   <path d="m1093.05,846.99c-1.29,-5.46 -3.13,-10.85 -3.75,-16.38c-0.68,-6.1 -0.3,-12.32 -0.3,-18.48c0.01,-139.65 0.02,-279.3 0.09,-418.95c0.01,-9.73 -0.95,-19.05 -5.68,-27.88c-3.07,-5.75 -8.31,-7.92 -13.6,-10.13c-10.06,-4.2 -27.03,1.07 -31.27,10.1c-2.35,5.01 -4.57,10.42 -5.18,15.83c-0.91,8.24 -0.44,16.64 -0.44,24.97c0,136.48 0.05,272.97 -0.06,409.45c0,8.54 -0.68,17.17 -2,25.61c-1.53,9.82 -7.61,16.48 -17.85,19.88c-5.01,0.5 -9.16,1.21 -13.34,1.67c-1.94,0.22 -3.96,0.12 -5.9,-0.15c-2.37,-0.33 -4.69,-1.42 -7.04,-1.43c-21.43,-0.12 -42.86,0.16 -64.28,-0.31c-4.29,-0.09 -8.52,-2.9 -12.89,-4.49c0.31,-0.92 0.59,-1.78 0.42,-1.27c-2.36,-2.37 -4.04,-4.15 -5.83,-5.81c-0.93,-0.86 -2.05,-1.49 -3.09,-2.23c-1.3,-5.8 -3.51,-11.56 -3.72,-17.4c-0.55,-15.14 -0.24,-30.32 -0.24,-45.49c0,-140.14 -0.05,-280.29 0.1,-420.44c0.01,-10.87 0.48,-21.9 2.36,-32.58c2.64,-15.1 11.04,-27.55 22.38,-37.64c9.04,-8.05 18.9,-15.1 31.5,-16.74c9.06,-1.17 18.1,-3.47 27.14,-3.49c119.15,-0.2 238.31,-0.11 357.46,0.01c4.34,0.01 8.7,1.71 13.02,1.57c123.02,-4.09 246.07,-0.58 369.09,-1.65c9.87,-0.09 19.93,0.4 29.57,2.28c18.11,3.53 33.16,12.63 43.72,28.22c2.83,4.18 5.45,8.51 8.29,12.68c5.01,7.36 6.1,15.92 7.1,24.35c0.79,6.75 0.44,13.65 0.44,20.48c0.02,151.48 0.02,302.96 0,454.44c0,7.33 -0.02,14.67 -0.38,21.99c-0.45,9.45 -9.72,20.65 -19.92,23.4c-4.67,0.52 -8.49,1.27 -12.34,1.7c-2.45,0.27 -4.98,0.29 -7.43,0.02c-3.18,-0.35 -6.32,-1.56 -9.48,-1.59c-16.1,-0.17 -32.21,0 -48.31,-0.12c-4.42,-0.04 -9.25,1.35 -12.73,-3.32c-0.79,-1.05 -3.31,-0.81 -5.17,-1.19c0.36,-1.1 0.64,-1.96 0.47,-1.44c-2.41,-2.43 -4.06,-4.19 -5.83,-5.82c-0.93,-0.86 -2.06,-1.49 -3.1,-2.23c-1.3,-5.46 -3.35,-10.86 -3.73,-16.38c-0.65,-9.63 -0.31,-19.32 -0.31,-28.98c0.01,-136.14 0.03,-272.28 0.06,-408.42c0,-7.84 -0.46,-15.44 -3.7,-22.92c-3.7,-8.53 -10.71,-12.22 -18.58,-15.21c-15.11,-5.74 -32.87,4.13 -38.75,15.91c-1.54,3.1 -2.65,6.7 -2.85,10.13c-0.46,7.97 -0.28,15.99 -0.28,23.99c0,137.3 0.02,274.6 0.04,411.91c0,10.02 0.08,20.01 -3.77,29.59c-2.92,7.26 -8.26,11.73 -16.17,14.4c-5.02,0.5 -9.19,1.19 -13.38,1.69c-1.79,0.21 -3.66,0.23 -5.46,0c-3.19,-0.42 -6.33,-1.54 -9.51,-1.59c-11.83,-0.2 -23.68,0.39 -35.48,-0.2c-13.22,-0.67 -27.1,3.72 -39.37,-5.1c0.09,-0.47 0.28,-1.44 0.47,-2.42c-0.41,0.23 -0.83,0.47 -1.24,0.71c-1.51,-1.51 -2.96,-3.08 -4.54,-4.51c-1.06,-0.97 -2.29,-1.74 -3.45,-2.6c-1.29,-5.46 -3.13,-10.85 -3.75,-16.38c-0.68,-6.1 -0.3,-12.32 -0.3,-18.48c0.01,-139.82 0.02,-279.64 0.09,-419.45c0,-9.56 -1.07,-18.7 -5.68,-27.38c-3.06,-5.76 -8.3,-7.92 -13.6,-10.13c-10.08,-4.2 -27.02,1.06 -31.27,10.1c-2.36,5.01 -4.58,10.42 -5.18,15.83c-0.91,8.24 -0.44,16.64 -0.44,24.97c0,136.48 0.05,272.97 -0.06,409.45c0,8.54 -0.68,17.17 -2,25.61c-1.54,9.82 -7.61,16.48 -17.85,19.88c-5.01,0.5 -9.16,1.21 -13.34,1.67c-1.94,0.22 -3.96,0.12 -5.9,-0.15c-2.37,-0.33 -4.69,-1.42 -7.04,-1.43c-21.43,-0.12 -42.86,0.16 -64.28,-0.31c-4.29,-0.09 -8.52,-2.9 -12.89,-4.49c0.31,-0.92 0.59,-1.78 0.42,-1.27c-2.37,-2.37 -4.04,-4.15 -5.83,-5.81c-0.93,-0.86 -2.06,-1.49 -3.1,-2.23c-1.3,-5.46 -3.36,-10.86 -3.73,-16.38c-0.65,-9.79 -0.31,-19.65 -0.31,-29.48c0.01,-135.97 0.03,-271.95 0.06,-407.92c0,-7.84 -0.45,-15.44 -3.7,-22.92c-3.7,-8.53 -10.71,-12.22 -18.58,-15.21c-15.09,-5.73 -32.85,4.11 -38.74,15.91c-1.55,3.09 -2.66,6.69 -2.86,10.13c-0.46,7.97 -0.28,15.99 -0.28,23.98c0,137.31 0.02,274.61 0.04,411.92c0,10.02 0.08,20.01 -3.77,29.59c-2.92,7.26 -8.26,11.73 -16.17,14.4c-5.01,0.5 -9.16,1.21 -13.34,1.67c-1.94,0.22 -3.96,0.12 -5.9,-0.15c-2.37,-0.33 -4.69,-1.42 -7.04,-1.43c-21.43,-0.12 -42.86,0.17 -64.28,-0.31c-4.29,-0.09 -8.52,-2.9 -12.89,-4.49c0.3,-0.91 0.59,-1.78 0.42,-1.27c-2.41,-2.41 -4.06,-4.17 -5.83,-5.81c-0.93,-0.86 -2.06,-1.49 -3.1,-2.23z" fill="#ffffff" fill-rule="nonzero" id="svg_4" stroke-dashoffset="0" stroke-miterlimit="4" transform=" translate(-1353.18, -567.82)"/>
  </g>
  <g id="svg_5" transform="translate(-21.4286, -14.2857) translate(-28.5714, -1564.29) translate(7.14286) translate(7.14286) translate(7.14286) translate(7.14286) matrix(3.69, 0, 0, 3.69, 1863.2, 3324.57)">
   <path d="m708.23,496.47c5.19,-1.86 10.1,-3.3 14.71,-5.4c7.47,-3.39 11.03,-10.24 11.9,-17.68c1.42,-12.11 1.91,-24.37 2.14,-36.57c0.31,-17.16 0.37,-34.34 -0.2,-51.49c-0.2,-6.01 -2.04,-12.15 -4.1,-17.88c-2.39,-6.67 -8.43,-9.81 -14.7,-12.33c-9.77,-3.92 -27.2,0.87 -31.32,10.09c-2.38,5.34 -5.09,11.09 -5.32,16.74c-0.76,18.81 0.06,37.68 -0.78,56.48c-0.52,11.92 -4.71,22.68 -17.3,27.43c-3.57,1.35 -7.38,2.88 -11.09,2.92c-26.83,0.25 -53.66,0.3 -80.49,0.07c-13.2,-0.11 -22.97,-9.94 -24.64,-22.45c-1.38,-10.25 -1.91,-20.66 -2.04,-31.01c-0.25,-20.83 -0.4,-41.67 0.28,-62.49c0.31,-9.73 1.29,-19.85 4.35,-29c5.14,-15.38 15.18,-27.63 28.75,-37.03c9.88,-6.85 20.46,-11.37 32.41,-11.98c17.35,-0.88 34.73,-1.64 52.1,-1.75c38.66,-0.26 77.33,-0.41 115.99,0.08c11.59,0.15 23.58,1.08 34.63,4.26c16.78,4.84 29.94,15.54 39.73,30.45c9,13.71 12.04,28.61 12.03,44.68c-0.13,146.33 -0.2,292.66 -0.09,438.98c0.02,26.4 -12.42,45.83 -32.86,60.63c-8.82,6.39 -19.07,10.64 -30.45,11.06c-11.22,0.41 -22.42,1.61 -33.63,1.65c-46.83,0.18 -93.67,-0.06 -140.5,0.14c-11.63,0.05 -23.16,-1.09 -34.06,-4.58c-11.92,-3.81 -22.46,-10.88 -30.31,-20.87c-4.7,-5.99 -8.55,-12.75 -12.05,-19.55c-2.09,-4.08 -3.19,-8.81 -3.95,-13.38c-1.14,-6.8 -2.21,-13.71 -2.23,-20.58c-0.14,-69.66 -0.31,-139.33 0.15,-208.99c0.1,-14.76 2.48,-29.67 10.07,-42.84c7.45,-12.96 18.33,-22.5 31.7,-29.29c11.76,-5.98 24.14,-8.23 37.28,-8.06c23.66,0.3 47.33,0.12 71,0.09c4.16,-0.01 8.32,-0.28 12.89,-0.55m28.85,225.03c-0.02,-36.3 0.14,-72.61 -0.24,-108.91c-0.06,-6.47 -1.78,-13.11 -3.8,-19.33c-5.4,-16.71 -26.64,-21.86 -40.51,-10.42c-7.9,6.52 -11.31,15.11 -11.38,24.77c-0.31,42.97 -0.19,85.93 -0.35,128.89c-0.03,6.42 1.09,12.26 4.04,18.12c6.66,13.21 25.45,18.83 38.25,11.16c9.67,-5.8 12.04,-15.49 13.64,-25.32c0.95,-5.85 0.29,-11.97 0.35,-18.96z" fill="#ffffff" fill-rule="nonzero" id="svg_6" stroke-dashoffset="0" stroke-miterlimit="4" transform=" translate(-705.03, -568.99)"/>
  </g>
  <g id="svg_7" transform="translate(-21.4286, -14.2857) translate(-28.5714, -1564.29) matrix(3.69, 0, 0, 3.69, 638.31, 3324.66)">
   <path d="m217.03,724c0.01,-7.67 -0.12,-14.84 0.07,-22c0.49,-18.41 9.71,-27.73 28.55,-29.14c10.78,-0.8 21.66,-0.11 32.49,-0.31c6.44,-0.12 12.88,-1.06 19.3,-0.93c9.6,0.2 19.44,-0.11 28.72,1.89c8.84,1.9 18.55,11.57 18.8,22.14c0.42,17.16 -0.17,34.34 0.51,51.48c0.34,8.62 1.23,17.35 5.45,25.41c4.5,8.61 15.53,13.81 24.95,11.07c3.22,-0.93 6.56,-1.45 9.82,-2.3c6.23,-1.62 9,-6.73 10.9,-12.06c1.46,-4.1 2.36,-8.62 2.38,-12.96c0.29,-78.49 0.45,-156.97 0.55,-235.46c0.06,-47.32 -0.22,-94.65 0.02,-141.98c0.16,-29.41 1.02,-58.82 1.57,-88.23c0.1,-5.4 1.46,-10.25 6.66,-12.89c2.28,-1.16 4.86,-1.93 7.39,-2.37c5.32,-0.93 10.69,-2.09 16.04,-2.15c21.5,-0.22 43,-0.39 64.49,0.11c9.2,0.22 18.13,2.85 24.58,10.24c5.84,6.72 7.56,15.11 8.49,23.63c0.4,3.63 0.19,7.33 0.19,10.99c0.01,152.82 0.02,305.63 0.02,458.44c0,7.33 0.42,14.72 -0.33,21.98c-1.09,10.76 -1.87,21.71 -7.62,31.41c-6.74,11.37 -15.66,20.41 -27.21,27c-10.59,6.04 -22.33,7.56 -33.92,7.66c-56.15,0.44 -112.31,0.51 -168.47,0.09c-24.71,-0.18 -44.56,-10.54 -59.41,-30.95c-7.61,-10.46 -12.77,-21.31 -13.14,-34.2c-0.71,-25.03 -1.24,-50.07 -1.84,-75.61z" fill="#ffffff" fill-rule="nonzero" id="svg_8" stroke-dashoffset="0" stroke-miterlimit="4" transform=" translate(-373.04, -569.02)"/>
  </g>
  <g id="svg_11" transform="translate(-21.4286, -14.2857) translate(-28.5714, -1564.29) matrix(3.69, 0, 0, 3.69, 2792.09, 4384.07)">
   <path d="m901,847.37c1.1,0.36 2.22,0.99 3.15,1.85c1.79,1.66 3.47,3.44 5.83,5.81c0.17,-0.51 -0.11,0.35 -0.42,1.27c4.37,1.59 8.6,4.4 12.89,4.49c21.42,0.47 42.85,0.19 64.28,0.31c2.35,0.01 4.67,1.1 7.04,1.43c1.94,0.27 3.96,0.37 5.9,0.15c4.18,-0.46 8.33,-1.17 12.96,-1.71c-3.62,1.31 -7.69,3.56 -11.79,3.62c-25.11,0.34 -50.26,0.8 -75.35,-0.08c-10.74,-0.37 -20.09,-5.72 -24.49,-17.14z" fill="#ffffff" fill-rule="nonzero" id="svg_12" stroke-dashoffset="0" stroke-miterlimit="4" transform=" translate(-956.81, -856.2)"/>
  </g>
  <g id="svg_13" transform="translate(-21.4286, -14.2857) translate(-28.5714, -1564.29) matrix(3.69, 0, 0, 3.69, 3500.49, 4384.06)">
   <path d="m1093,847.37c1.09,0.36 2.22,0.99 3.15,1.85c1.77,1.64 3.42,3.4 5.83,5.81c0.17,-0.51 -0.12,0.36 -0.42,1.27c4.37,1.59 8.6,4.4 12.89,4.49c21.42,0.48 42.85,0.19 64.28,0.31c2.35,0.01 4.67,1.1 7.04,1.43c1.94,0.27 3.96,0.37 5.9,0.15c4.18,-0.46 8.33,-1.17 12.96,-1.71c-3.62,1.31 -7.69,3.56 -11.79,3.62c-25.11,0.34 -50.26,0.8 -75.35,-0.08c-10.74,-0.38 -20.08,-5.74 -24.49,-17.14z" fill="#ffffff" fill-rule="nonzero" id="svg_14" stroke-dashoffset="0" stroke-miterlimit="4" transform=" translate(-1148.81, -856.2)"/>
  </g>
  <g id="svg_15" transform="translate(-21.4286, -14.2857) translate(-28.5714, -1564.29) matrix(3.69, 0, 0, 3.69, 4238.39, 4384.06)">
   <path d="m1293,847.37c1.09,0.36 2.22,0.99 3.15,1.85c1.79,1.66 3.46,3.44 5.83,5.81c0.17,-0.51 -0.11,0.35 -0.42,1.27c4.37,1.59 8.6,4.4 12.89,4.49c21.42,0.47 42.85,0.19 64.28,0.31c2.35,0.01 4.67,1.1 7.04,1.43c1.94,0.27 3.96,0.37 5.9,0.15c4.18,-0.46 8.33,-1.17 12.96,-1.71c-3.62,1.31 -7.69,3.56 -11.79,3.62c-25.12,0.34 -50.26,0.8 -75.35,-0.08c-10.75,-0.37 -20.06,-5.76 -24.49,-17.14z" fill="#ffffff" fill-rule="nonzero" id="svg_16" stroke-dashoffset="0" stroke-miterlimit="4" transform=" translate(-1348.81, -856.19)"/>
  </g>
  <g id="svg_17" transform="translate(-21.4286, -14.2857) translate(-28.5714, -1564.29) matrix(3.69, 0, 0, 3.69, 4946.77, 4384.06)">
   <path d="m1485,847.37c1.21,0.48 2.44,1.25 3.5,2.22c1.58,1.43 3.03,3 4.54,4.51c0.41,-0.24 0.83,-0.48 1.24,-0.71c-0.19,0.98 -0.38,1.95 -0.47,2.42c12.27,8.82 26.15,4.43 39.37,5.1c11.8,0.59 23.65,0 35.48,0.2c3.18,0.05 6.32,1.17 9.51,1.59c1.8,0.23 3.67,0.21 5.46,0c4.19,-0.5 8.36,-1.19 13,-1.73c-3.62,1.31 -7.69,3.56 -11.79,3.62c-25.11,0.34 -50.26,0.8 -75.35,-0.08c-10.74,-0.37 -20.07,-5.74 -24.49,-17.14z" fill="#ffffff" fill-rule="nonzero" id="svg_18" stroke-dashoffset="0" stroke-miterlimit="4" transform=" translate(-1540.81, -856.2)"/>
  </g>
  <g id="svg_19" transform="translate(-21.4286, -14.2857) translate(-28.5714, -1564.29) matrix(3.69, 0, 0, 3.69, 5669.83, 4384.19)">
   <path d="m1685,847.37c1.09,0.36 2.22,0.99 3.15,1.85c1.77,1.63 3.42,3.39 5.83,5.82c0.17,-0.52 -0.11,0.34 -0.47,1.44c1.86,0.38 4.38,0.14 5.17,1.19c3.48,4.67 8.31,3.28 12.73,3.32c16.1,0.12 32.21,-0.05 48.31,0.12c3.16,0.03 6.3,1.24 9.48,1.59c2.45,0.27 4.98,0.25 7.43,-0.02c3.85,-0.43 7.67,-1.18 11.95,-1.73c-3.97,1.33 -8.38,3.61 -12.83,3.69c-21.78,0.38 -43.59,0.81 -65.34,-0.06c-11.08,-0.44 -20.82,-5.41 -25.41,-17.21z" fill="#ffffff" fill-rule="nonzero" id="svg_20" stroke-dashoffset="0" stroke-miterlimit="4" transform=" translate(-1736.79, -856.23)"/>
  </g>
  <ellipse cx="916" cy="264.86" fill="#ff003f" id="svg_26" rx="253.57" ry="253.57" stroke="null" stroke-dasharray="null" stroke-linecap="null" stroke-linejoin="null" stroke-opacity="null" stroke-width="null"/>
 </g>
</svg>